<svg width="16" height="16" viewBox="0 0 16 16" fill="none" xmlns="http://www.w3.org/2000/svg">
<path fill-rule="evenodd" clip-rule="evenodd" d="M12 4.00001V9.33334C12 10.8061 10.8061 12 9.33334 12H4.00001C2.52725 12 1.33334 10.8061 1.33334 9.33334V4.00001C1.33334 2.52725 2.52725 1.33334 4.00001 1.33334H9.33334C10.8061 1.33334 12 2.52725 12 4.00001ZM2.33334 4.00001V9.33334C2.33334 9.77537 2.50894 10.1993 2.8215 10.5119C3.13406 10.8244 3.55798 11 4.00001 11H9.33334C10.2538 11 11 10.2538 11 9.33334V4.00001C11 3.07954 10.2538 2.33334 9.33334 2.33334H4.00001C3.07954 2.33334 2.33334 3.07954 2.33334 4.00001Z" fill="white"/>
<path d="M14 5.50001C13.7254 5.5036 13.5036 5.72537 13.5 6.00001V11.3333C13.4964 12.5284 12.5284 13.4964 11.3333 13.5H6.00001C5.72387 13.5 5.50001 13.7239 5.50001 14C5.50001 14.2762 5.72387 14.5 6.00001 14.5H11.3333C13.0822 14.5 14.5 13.0822 14.5 11.3333V6.00001C14.4964 5.72537 14.2747 5.5036 14 5.50001Z" fill="white"/>
</svg>
