<svg width="20" height="20" viewBox="0 0 20 20" fill="none" xmlns="http://www.w3.org/2000/svg">
<path d="M12.5 6.03729C12.5 4.32496 10.4884 3.40443 9.19256 4.52381L7.06318 6.36328C6.69989 6.67711 6.23584 6.84979 5.75577 6.84979L4.99998 6.8498C3.61928 6.84981 2.5 7.96909 2.5 9.3498V11.2606C2.5 12.6413 3.61929 13.7606 5 13.7606H5.75579C6.23587 13.7606 6.69992 13.9333 7.06322 14.2471L9.19256 16.0866C10.4884 17.2059 12.5 16.2854 12.5 14.5731V10.3052V6.03729Z" fill="white" stroke="white" stroke-width="1.5"/>
<path d="M15 12.8056C15.5233 12.1092 15.8333 11.2436 15.8333 10.3056C15.8333 9.3676 15.5233 8.50199 15 7.8056" stroke="white" stroke-width="1.5" stroke-linecap="round"/>
<path d="M16.6667 15.3056C17.7133 13.9128 18.3334 12.1816 18.3334 10.3056C18.3334 8.42959 17.7133 6.69837 16.6667 5.3056" stroke="white" stroke-width="1.5" stroke-linecap="round"/>
</svg>
