<svg width="20" height="20" viewBox="0 0 20 20" fill="none" xmlns="http://www.w3.org/2000/svg">
<path d="M16.4584 5.24997C16.4326 4.4702 16.0243 3.7532 15.3667 3.3333C14.477 2.75441 13.3619 2.64259 12.375 3.0333L8.58335 4.5083C7.62051 4.84765 6.96073 5.73836 6.91669 6.7583V12.8583C6.58343 12.6805 6.21104 12.5889 5.83335 12.5916C4.89222 12.5916 4.04392 13.159 3.68455 14.0288C3.32518 14.8987 3.52563 15.8993 4.1923 16.5636C4.85897 17.2279 5.86036 17.4247 6.72888 17.0623C7.5974 16.6998 8.16173 15.8494 8.15835 14.9083C8.16192 14.8639 8.16192 14.8193 8.15835 14.775V6.7583C8.20696 6.24737 8.55908 5.81628 9.05002 5.66664L12.8334 4.16664C13.4387 3.93148 14.1199 3.99961 14.6667 4.34997C14.9872 4.54372 15.1902 4.88424 15.2084 5.2583V11.3166C14.8764 11.1337 14.5041 11.0364 14.125 11.0333C12.8544 11.0258 11.8131 12.0398 11.7868 13.3102C11.7605 14.5806 12.759 15.6368 14.0289 15.6818C15.2988 15.7268 16.3696 14.744 16.4334 13.475C16.4373 13.4362 16.4373 13.3971 16.4334 13.3583L16.4584 5.24997Z" fill="#16272D" fill-opacity="0.6"/>
</svg>
